# xmcd
#
# Track frame offsets:
#	150
#	19941
#	43097
#	60329
#	70821
#	90270
#	105464
#	122070
#	134837
#	160493
#	184290
#	196041
#	214248
#	233168
#	252855
#	265940
#	282845
#	295207
#	317183
# Disc length: 4415 seconds
# Revision: 1
# Processed by: cddbd v1.5.2PL0 Copyright (c) Steve Scherf et al.
#
# Submitted via: libkcddb 0.31
#
DISCID=1b113d13
DTITLE=Boi da Pindoba - O sonho continua, quem viver verá
DYEAR=2008
DGENRE=
TTITLE0=Lelé - Santos Padroeiros
TTITLE1=Lelé, Toinho - La Vai (pout-porri)
TTITLE2=Ceceu - Pode Bater Palmas
TTITLE3=Toinho - Apito de Prata
TTITLE4=Ceceu - Jardim Florido
TTITLE5=Lelé - Eu Disse Que Ele Merece
TTITLE6=Lelé - Jóia Rara
TTITLE7=Lelé - Juarez Sousa
TTITLE8=Ceceu - Mãe Jóia Preciosa
TTITLE9=Lelé - Urro do Boi
TTITLE10=Lelé - Lua Cheia
TTITLE11=R. Ricci - Ele Merece Novamente
TTITLE12=Toinho - Minha Paixão
TTITLE13=R. Ricci - Rochinha Você é Especial
TTITLE14=Raimundão - Povo Feliz
TTITLE15=Ceceu - Renato Dionizio
TTITLE16=Toinho - Terra Abençoada
TTITLE17=Lelé, Toinho e Ceceu - Pout-porri
TTITLE18=Lelé - Ta Chegando a Hora
EXTD=
EXTT0=
EXTT1=
EXTT2=
EXTT3=
EXTT4=
EXTT5=Canindé Barros
EXTT6=
EXTT7=
EXTT8=
EXTT9=
EXTT10=
EXTT11=Canindé Barros
EXTT12=
EXTT13=
EXTT14=
EXTT15=
EXTT16=
EXTT17=
EXTT18=
PLAYORDER=
